<?xml version="1.0" encoding="utf-8"?>
<!-- Generator: Adobe Illustrator 28.0.0, SVG Export Plug-In . SVG Version: 6.00 Build 0)  -->
<svg version="1.1" id="Layer_1" xmlns="http://www.w3.org/2000/svg" xmlns:xlink="http://www.w3.org/1999/xlink" x="0px" y="0px"
	 viewBox="0 0 16 16" style="enable-background:new 0 0 16 16;" xml:space="preserve">
<style type="text/css">
	.st0{fill:#F7B5A4;}
</style>
<path class="st0" d="M11.4,8c0.4-0.1,0.8-0.1,1-0.3c1-0.6,1.3-1.8,0.7-2.7c-0.6-0.9-1.8-1.3-2.7-0.7C10.2,4.4,10,4.7,9.7,5
	C9.9,4.6,10,4.3,10,4c0-1.1-0.9-2-2-2S6,2.9,6,4c0,0.3,0.1,0.6,0.3,1C6,4.7,5.8,4.4,5.5,4.3C4.6,3.7,3.4,4.1,2.8,5
	C2.3,6,2.6,7.2,3.5,7.7c0.2,0.1,0.6,0.2,1,0.3c-0.4,0.1-0.8,0.1-1,0.3C2.6,8.8,2.2,10,2.8,11s1.8,1.3,2.7,0.8c0,0,0,0,0,0
	C5.8,11.6,6,11.3,6.3,11C6.1,11.4,6,11.7,6,12c0,1.1,0.9,2,2,2s2-0.9,2-2c0-0.3-0.1-0.6-0.3-1c0.3,0.4,0.5,0.6,0.8,0.8
	c1,0.6,2.2,0.2,2.7-0.7c0.6-1,0.2-2.2-0.7-2.7c0,0,0,0,0,0C12.2,8.1,11.9,8.1,11.4,8z M9,4c0,0.1,0,0.1,0,0.2c0,0.1-0.1,0.3-0.2,0.5
	C8.6,5.1,8.4,5.5,8.1,5.9L8,6.1C8,6.1,7.9,6,7.9,5.9C7.6,5.5,7.4,5.1,7.2,4.7C7.2,4.5,7.1,4.4,7,4.2C7,4.1,7,4.1,7,4
	c0-0.6,0.4-1,1-1S9,3.4,9,4z M3.7,5.5C3.9,5,4.6,4.9,5,5.1c0.1,0,0.1,0.1,0.2,0.1c0.1,0.1,0.2,0.2,0.3,0.4C5.8,6,6,6.4,6.3,6.8
	l0.1,0.2c-0.1,0-0.2,0-0.3,0c-0.5,0-0.9,0-1.4-0.1C4.6,7,4.4,7,4.2,6.9c-0.1,0-0.1,0-0.2-0.1C3.6,6.6,3.4,6,3.7,5.5z M5,10.9
	c-0.5,0.3-1.1,0.1-1.4-0.4C3.4,10,3.6,9.4,4,9.1c0,0,0,0,0,0c0,0,0.1,0,0.2,0C4.4,9,4.5,9,4.7,9c0.5,0,0.9-0.1,1.4-0.1
	c0.1,0,0.2,0,0.3,0c0,0.1-0.1,0.2-0.1,0.2C6,9.6,5.8,10,5.5,10.3c-0.1,0.1-0.2,0.3-0.3,0.4C5.1,10.8,5.1,10.8,5,10.9z M9,12
	c0,0.6-0.4,1-1,1s-1-0.4-1-1c0-0.1,0-0.1,0-0.2c0-0.1,0.1-0.3,0.2-0.5c0.2-0.4,0.4-0.8,0.6-1.2L8,9.9l0.1,0.2
	c0.2,0.4,0.5,0.8,0.6,1.2c0.1,0.2,0.1,0.4,0.2,0.5C9,11.9,9,11.9,9,12z M12.3,5.5C12.6,6,12.4,6.6,12,6.9c-0.1,0-0.1,0-0.2,0.1
	C11.6,7,11.5,7,11.3,7c-0.4,0-0.9,0.1-1.4,0.1c-0.1,0-0.2,0-0.3,0l0.1-0.2C10,6.4,10.2,6,10.5,5.7c0.1-0.1,0.2-0.3,0.3-0.4
	c0-0.1,0.1-0.1,0.1-0.1c0,0,0,0,0,0C11.4,4.9,12.1,5,12.3,5.5z M11,10.9c-0.1,0-0.1-0.1-0.2-0.1c-0.1-0.1-0.2-0.3-0.3-0.4
	C10.2,10,10,9.6,9.7,9.2c0-0.1-0.1-0.2-0.1-0.2l0.3,0c0.5,0,1,0,1.4,0.1c0.2,0,0.4,0.1,0.5,0.1c0.1,0,0.1,0,0.2,0l0,0
	c0.5,0.3,0.6,0.9,0.4,1.4C12.1,11,11.5,11.1,11,10.9C11,10.9,11,10.9,11,10.9L11,10.9z M8,9C7.4,9,7,8.6,7,8s0.4-1,1-1s1,0.4,1,1
	S8.6,9,8,9z"/>
</svg>
